<svg width="24" height="10" viewBox="0 0 24 10" fill="none" xmlns="http://www.w3.org/2000/svg">
<path fill-rule="evenodd" clip-rule="evenodd" d="M14.1319 8.752C14.0759 8.752 14.0239 8.732 13.9759 8.692C13.9279 8.66 13.9039 8.612 13.9039 8.548C13.9039 8.452 13.9479 8.336 14.0359 8.2C14.1159 8.064 14.2199 7.924 14.3479 7.78C14.4679 7.636 14.5839 7.496 14.6959 7.36C14.8079 7.232 14.8879 7.12 14.9359 7.024L15.0439 6.952H15.0919L15.0079 7.048L15.0199 7.084C15.0679 7.052 15.1439 6.984 15.2479 6.88C15.3599 6.768 15.4639 6.656 15.5599 6.544C15.6639 6.432 15.7239 6.356 15.7399 6.316L15.8959 6.196C15.9119 6.108 15.9759 6 16.0879 5.872C16.2079 5.744 16.3439 5.608 16.4959 5.464L16.9279 5.032C17.0719 4.896 17.1719 4.78 17.2279 4.684L17.1079 4.552C17.0199 4.56 16.9479 4.508 16.8919 4.396C16.8439 4.284 16.8039 4.148 16.7719 3.988C16.7399 3.828 16.7159 3.676 16.6999 3.532C16.6839 3.388 16.6679 3.288 16.6519 3.232L16.5919 3.352L16.4959 3.028C16.4239 3.028 16.3719 2.984 16.3399 2.896C16.3079 2.808 16.2879 2.704 16.2799 2.584C16.2719 2.464 16.2639 2.356 16.2559 2.26001C16.2479 2.16401 16.2239 2.10801 16.1839 2.09201L16.1479 1.97201L16.1959 1.76801L16.6639 1.63601L16.6159 1.32401L16.6279 1.33601C16.6439 1.20001 16.6119 1.07601 16.5319 0.964006C16.4599 0.852006 16.3999 0.732006 16.3519 0.604006C16.3519 0.540006 16.3799 0.444006 16.4359 0.316006C16.4919 0.180006 16.5599 0.108006 16.6399 0.100006L16.7119 0.124006C16.7839 0.348006 16.8519 0.580006 16.9159 0.820006C16.9799 1.06001 17.0279 1.30401 17.0599 1.55201H17.1199C17.1999 1.55201 17.2519 1.57201 17.2759 1.61201C17.2999 1.65201 17.3119 1.70801 17.3119 1.78001C17.3119 2.00401 17.3519 2.23201 17.4319 2.464C17.5119 2.688 17.5879 2.912 17.6599 3.136C17.7399 3.36 17.7679 3.584 17.7439 3.808L17.8399 4.036C17.9519 3.94 18.0559 3.836 18.1519 3.724C18.2559 3.612 18.3679 3.504 18.4879 3.4L18.4759 3.388L18.8479 3.04L18.8359 3.028L18.8839 2.968V2.98C19.2279 2.684 19.5719 2.372 19.9159 2.04401C20.2679 1.70801 20.6359 1.40001 21.0199 1.12001C21.4039 0.840006 21.8199 0.636006 22.2679 0.508006C22.3239 0.556006 22.3519 0.624006 22.3519 0.712006C22.3519 0.792006 22.3639 0.864006 22.3879 0.928006C22.3479 0.992006 22.3159 1.06401 22.2919 1.14401C22.2759 1.22401 22.2559 1.30401 22.2319 1.38401L22.1239 1.27601H22.1119L22.0039 1.39601L21.9199 1.40801L21.8599 1.46801C21.6679 1.53201 21.4839 1.60401 21.3079 1.68401C21.1399 1.75601 20.9719 1.84401 20.8039 1.948H20.7679C20.8959 1.77201 21.0359 1.62401 21.1879 1.50401L21.2479 1.39601C21.1199 1.40401 20.9439 1.49201 20.7199 1.66001C20.4959 1.82801 20.2479 2.04 19.9759 2.296C19.7119 2.544 19.4439 2.804 19.1719 3.076C18.8999 3.348 18.6559 3.596 18.4399 3.82C18.2239 4.044 18.0599 4.212 17.9479 4.324C18.1319 4.748 18.3039 5.116 18.4639 5.428C18.6239 5.74 18.7959 6.024 18.9799 6.28C19.1719 6.536 19.3919 6.788 19.6399 7.036C19.8879 7.284 20.1919 7.552 20.5519 7.84C20.8319 7.88 21.0959 7.94 21.3439 8.02C21.5999 8.1 21.8719 8.14 22.1599 8.14C22.3199 8.14 22.4799 8.124 22.6399 8.092C22.8079 8.06 22.9719 8.048 23.1319 8.056C23.0759 8.12 22.9639 8.18 22.7959 8.236C22.6359 8.3 22.4679 8.352 22.2919 8.392C22.1239 8.432 21.9959 8.452 21.9079 8.452C21.8679 8.452 21.7799 8.44 21.6439 8.416C21.5159 8.4 21.3719 8.376 21.2119 8.344C21.0599 8.312 20.9239 8.28 20.8039 8.248C20.6919 8.216 20.6279 8.188 20.6119 8.164L20.6479 8.104C20.6159 8.008 20.5439 7.948 20.4319 7.924C20.3199 7.9 20.1959 7.884 20.0599 7.876C19.9319 7.876 19.8279 7.86 19.7479 7.828L19.6759 7.732H19.6279C19.5159 7.732 19.4159 7.7 19.3279 7.636C19.2479 7.572 19.1759 7.5 19.1119 7.42L18.8839 7.444L18.8239 7.312V7.228L18.7519 7.144L18.6799 7.24C18.5759 7.2 18.4599 7.136 18.3319 7.048C18.2119 6.968 18.1439 6.864 18.1279 6.736C18.0799 6.688 18.0039 6.58 17.8999 6.412C17.7959 6.236 17.6919 6.056 17.5879 5.872C17.4839 5.688 17.4079 5.552 17.3599 5.464L17.4319 5.296L17.3719 5.212L17.3359 5.224L17.2399 5.032C17.1519 5.12 17.0119 5.264 16.8199 5.464C16.6279 5.656 16.4159 5.876 16.1839 6.124C15.9599 6.364 15.7399 6.608 15.5239 6.856C15.3159 7.096 15.1439 7.316 15.0079 7.516C14.8719 7.716 14.8039 7.864 14.8039 7.96L14.8159 7.984L15.0799 7.888C15.1759 7.864 15.2599 7.82 15.3319 7.756L15.4279 7.72L15.5239 7.732C15.6919 7.572 15.9079 7.436 16.1719 7.324C16.4359 7.212 16.6719 7.096 16.8799 6.976L16.9279 7C16.9199 7.008 16.8319 7.068 16.6639 7.18C16.5039 7.292 16.2999 7.428 16.0519 7.588C15.8119 7.756 15.5679 7.924 15.3199 8.092C15.0799 8.26 14.8759 8.4 14.7079 8.512C14.5319 8.624 14.4399 8.684 14.4319 8.692C14.3279 8.732 14.2279 8.752 14.1319 8.752ZM15.5599 6.412L15.5719 6.352C15.6599 6.248 15.7559 6.168 15.8599 6.112C15.8199 6.168 15.7719 6.22 15.7159 6.268C15.6679 6.316 15.6159 6.364 15.5599 6.412ZM15.2119 6.832L15.1519 6.82C15.1919 6.78 15.2359 6.732 15.2839 6.676C15.3399 6.612 15.3959 6.564 15.4519 6.532L15.4759 6.58C15.4519 6.612 15.4199 6.64 15.3799 6.664L15.2839 6.736L15.2599 6.796L15.2119 6.832ZM12.0245 7.50399C11.8965 7.50399 11.7925 7.448 11.7125 7.336C11.6325 7.232 11.5925 7.11599 11.5925 6.98799C11.5925 6.89199 11.6205 6.74799 11.6765 6.556C11.7405 6.356 11.8165 6.148 11.9045 5.932C11.9925 5.708 12.0845 5.508 12.1805 5.332C12.2765 5.156 12.3645 5.04 12.4445 4.984C12.5565 4.808 12.6565 4.644 12.7445 4.492C12.6165 4.516 12.4885 4.544 12.3605 4.576C12.2325 4.6 12.1125 4.636 12.0005 4.684C11.9559 4.74125 11.9063 4.77574 11.8517 4.78746C11.8566 4.81102 11.859 4.83652 11.859 4.86399C11.859 5.03199 11.811 5.19199 11.715 5.34399C11.619 5.49599 11.507 5.61599 11.379 5.70399H11.367C11.359 5.72799 11.319 5.76799 11.247 5.82399C11.183 5.87199 11.111 5.92399 11.031 5.97999C10.959 6.02799 10.911 6.06399 10.887 6.08799L10.851 6.19599C10.795 6.19599 10.743 6.21599 10.695 6.25599C10.647 6.28799 10.623 6.33199 10.623 6.38799C10.639 6.41999 10.675 6.44799 10.731 6.47199C10.787 6.48799 10.835 6.49599 10.875 6.49599L10.827 6.51999C10.571 6.51999 10.375 6.53999 10.239 6.57999C10.103 6.61199 9.99504 6.64399 9.91504 6.67599C9.83504 6.70799 9.75104 6.72399 9.66304 6.72399C9.54304 6.72399 9.44304 6.69599 9.36304 6.63999C9.28304 6.57599 9.21104 6.49199 9.14704 6.38799H9.12304L9.13504 6.29199L9.11104 6.30399V6.23199L9.17104 6.18399H9.14704L9.07504 6.12399H9.09904L9.12304 6.07599V6.05199L9.09904 5.99199V5.96799H9.07504L8.90704 5.88399V5.84799C8.85104 5.79199 8.80304 5.73199 8.76304 5.66799C8.74803 5.63423 8.73654 5.59958 8.72857 5.56406C8.65631 5.63549 8.57688 5.70214 8.49026 5.76401C8.38626 5.83601 8.30226 5.94401 8.23826 6.08801C8.09426 6.16001 7.95426 6.25201 7.81826 6.36401C7.70626 6.39601 7.61026 6.45601 7.53026 6.54401C7.45026 6.63201 7.35426 6.69601 7.24226 6.73601C7.05826 6.79201 6.86626 6.84801 6.66626 6.90401C6.47426 6.95201 6.27826 6.96801 6.07826 6.95201C6.04626 7.07201 5.97426 7.22401 5.86226 7.40801C5.75026 7.60001 5.63026 7.78401 5.50226 7.96001C5.37426 8.14401 5.27026 8.29601 5.19026 8.41601L4.97426 8.51201L4.90226 8.60801C4.87026 8.64801 4.83826 8.67601 4.80626 8.69201H4.75826C4.64626 8.82001 4.53426 8.92401 4.42226 9.00401C4.30226 9.08401 4.15026 9.12401 3.96626 9.12401C3.80626 9.12401 3.64626 9.08401 3.48626 9.00401C3.31826 8.93201 3.17826 8.82801 3.06626 8.69201C2.95426 8.55601 2.89826 8.40001 2.89826 8.22401L2.93426 8.14001C3.01426 8.22801 3.07426 8.32401 3.11426 8.42801C3.15426 8.53201 3.21026 8.61601 3.28226 8.68001C3.35426 8.75201 3.47426 8.78801 3.64226 8.78801C3.67426 8.78801 3.70626 8.78401 3.73826 8.77601C3.77026 8.77601 3.80226 8.77201 3.83426 8.76401C3.87426 8.78001 3.95426 8.74401 4.07426 8.65601C4.19426 8.56801 4.33026 8.45601 4.48226 8.32001C4.63426 8.18401 4.78626 8.03601 4.93826 7.87601C5.08226 7.72401 5.20626 7.58401 5.31026 7.45601C5.40626 7.33601 5.45826 7.25201 5.46626 7.20401C5.53026 7.10801 5.59426 7.00401 5.65826 6.89201C5.73026 6.78001 5.79426 6.67201 5.85026 6.56801L5.87426 6.58001L5.91026 6.53201C5.97426 6.46001 6.01426 6.38801 6.03026 6.31601C6.04626 6.24401 6.09426 6.17601 6.17426 6.11201C6.23826 6.01601 6.29426 5.92001 6.34226 5.82401C6.39826 5.72801 6.42626 5.62401 6.42626 5.51201C6.42626 5.46401 6.43826 5.42001 6.46226 5.38001C6.48626 5.33201 6.51026 5.28801 6.53426 5.24801C6.69426 5.00001 6.79826 4.77201 6.84626 4.56401C6.89426 4.35601 6.95426 4.11601 7.02626 3.84401C7.01026 3.80401 6.98626 3.76801 6.95426 3.73601C6.92226 3.70401 6.89426 3.67201 6.87026 3.64001H6.89426C7.04626 3.64001 7.15426 3.68401 7.21826 3.77201C7.28226 3.86001 7.31426 3.97201 7.31426 4.10801C7.31426 4.15601 7.30226 4.24401 7.27826 4.37201C7.25426 4.49201 7.21826 4.62401 7.17026 4.76801C7.13026 4.91201 7.08226 5.03601 7.02626 5.14001C6.97826 5.24401 6.92626 5.29601 6.87026 5.29601C6.86226 5.36001 6.84626 5.42401 6.82226 5.48801C6.80626 5.54401 6.78626 5.60001 6.76226 5.65601C6.80226 5.61601 6.84226 5.56801 6.88226 5.51201C6.93026 5.44801 6.98226 5.41201 7.03826 5.40401C7.08626 5.36401 7.11826 5.31201 7.13426 5.24801C7.15826 5.18401 7.19826 5.13201 7.25426 5.09201C7.27026 5.09201 7.29426 5.08401 7.32626 5.06801C7.36626 5.04401 7.37426 5.02401 7.35026 5.00801L7.51826 4.90001H7.57826C7.59426 4.82001 7.64626 4.77201 7.73426 4.75601C7.83026 4.66801 7.90226 4.60801 7.95026 4.57601C8.00626 4.54401 8.06226 4.52401 8.11826 4.51601C8.18226 4.50001 8.27426 4.48401 8.39426 4.46801L8.49026 4.51601C8.53026 4.49201 8.56626 4.48001 8.59826 4.48001C8.71026 4.48001 8.79026 4.54801 8.83826 4.68401C8.88245 4.79132 8.9092 4.88369 8.91852 4.96111C9.00808 4.84212 9.10825 4.73375 9.21904 4.63599C9.36304 4.51599 9.49104 4.45599 9.60304 4.45599C9.65904 4.39999 9.73904 4.37199 9.84304 4.37199L9.87904 4.33599L9.93904 4.34799C10.027 4.30799 10.123 4.29599 10.227 4.31199L10.239 4.28799H10.911C10.975 4.28799 11.055 4.30399 11.151 4.33599C11.255 4.36799 11.335 4.39199 11.391 4.40799C11.454 4.47793 11.5353 4.53565 11.6349 4.58113C11.6309 4.56234 11.6248 4.54463 11.6165 4.528C11.6085 4.488 11.6005 4.452 11.5925 4.42C11.5845 4.412 11.5805 4.392 11.5805 4.36C11.5805 4.256 11.6285 4.188 11.7245 4.156C11.8285 4.124 11.9325 4.108 12.0365 4.108C12.1885 4.108 12.2925 4.12 12.3485 4.144L12.4685 4.12H12.7685H12.9245C12.9725 4.12 13.0205 4.116 13.0685 4.108L13.1165 4.036L13.1045 3.988C13.1285 3.932 13.1805 3.84 13.2605 3.712C13.3405 3.584 13.4245 3.448 13.5125 3.304C13.6005 3.16 13.6765 3.036 13.7405 2.932L13.8485 2.764C13.8485 2.716 13.8885 2.688 13.9685 2.68C14.0485 2.672 14.1005 2.668 14.1245 2.668C14.2125 2.668 14.3325 2.696 14.4845 2.752C14.6365 2.8 14.7125 2.884 14.7125 3.004C14.7125 3.076 14.6845 3.136 14.6285 3.184C14.5725 3.224 14.5125 3.252 14.4485 3.268V3.28C14.4485 3.328 14.4125 3.384 14.3405 3.448C14.2765 3.512 14.2005 3.568 14.1125 3.616C14.0245 3.664 13.9565 3.696 13.9085 3.712C13.8845 3.72 13.8525 3.752 13.8125 3.808L13.7405 3.916V3.964C13.7085 3.988 13.6725 4.016 13.6325 4.048C13.6005 4.072 13.5725 4.104 13.5485 4.144C13.5885 4.152 13.6285 4.156 13.6685 4.156H13.7885H13.9685C14.0325 4.156 14.0925 4.16 14.1485 4.168L14.5205 4.216C14.4245 4.296 14.3165 4.344 14.1965 4.36C14.0765 4.368 13.9525 4.372 13.8245 4.372C13.7045 4.364 13.5885 4.384 13.4765 4.432C13.4205 4.448 13.3445 4.496 13.2485 4.576C13.1605 4.656 13.0805 4.744 13.0085 4.84C12.9365 4.928 12.9005 5.004 12.9005 5.068L12.6245 5.44C12.5445 5.48 12.5045 5.54 12.5045 5.62C12.5045 5.7 12.4605 5.74 12.3725 5.74L12.2045 6.124C12.1965 6.17199 12.1845 6.248 12.1685 6.352C12.1605 6.448 12.1285 6.504 12.0725 6.51999C12.0725 6.62399 12.0685 6.72799 12.0605 6.83199C12.0525 6.928 12.0485 7.02399 12.0485 7.11999L12.0725 7.168H12.1685C12.3285 7.008 12.4925 6.856 12.6605 6.712C12.8365 6.56 13.0005 6.4 13.1525 6.232L13.2125 6.208H13.2365L13.3085 6.112L13.3565 6.088L13.3445 6.076L13.4165 6.016C13.4805 5.896 13.5845 5.796 13.7285 5.716L13.7405 5.74C13.7405 5.78 13.6885 5.868 13.5845 6.004C13.4805 6.132 13.3485 6.284 13.1885 6.46C13.0365 6.628 12.8765 6.79199 12.7085 6.95199C12.5485 7.11199 12.4045 7.24399 12.2765 7.34799C12.1485 7.45199 12.0645 7.50399 12.0245 7.50399ZM10.503 6.13599C10.407 6.19999 10.235 6.29199 9.98704 6.41199C9.88304 6.41199 9.78704 6.38799 9.69904 6.33999C9.61104 6.28399 9.52304 6.23599 9.43504 6.19599L9.42304 5.97999C9.41504 5.84399 9.45904 5.69199 9.55504 5.52399C9.65104 5.35599 9.77104 5.20399 9.91504 5.06799C10.059 4.92399 10.191 4.83599 10.311 4.80399V4.76799H10.203L10.095 4.83999L10.047 4.80399L9.96304 4.89999H9.89104C9.88304 4.95599 9.85104 4.99199 9.79504 5.00799C9.73904 5.01599 9.71104 5.05199 9.71104 5.11599C9.68704 5.13199 9.65904 5.14399 9.62704 5.15199L9.55504 5.17599V5.18799L9.49504 5.22399L9.45904 5.29599L9.43504 5.28399L9.36304 5.39199V5.43999L9.27904 5.61999L9.21904 5.65599V5.69199L9.17104 5.67999C9.13904 5.62399 9.12304 5.55599 9.12304 5.47599C9.12304 5.31599 9.17904 5.17199 9.29104 5.04399C9.40304 4.90799 9.53504 4.79199 9.68704 4.69599C9.84704 4.59999 9.99104 4.52799 10.119 4.47999L10.275 4.49199C10.339 4.46799 10.407 4.44799 10.479 4.43199C10.559 4.41599 10.635 4.40799 10.707 4.40799C10.843 4.40799 10.963 4.45599 11.067 4.55199C11.179 4.63999 11.235 4.75599 11.235 4.89999C11.235 4.97999 11.219 5.05599 11.187 5.12799C11.163 5.19199 11.147 5.25999 11.139 5.33199C11.163 5.33999 11.191 5.34399 11.223 5.34399V5.36799C11.055 5.52799 10.939 5.65199 10.875 5.73999C10.811 5.82799 10.759 5.89999 10.719 5.95599C10.679 6.00399 10.607 6.06399 10.503 6.13599ZM9.71104 6.45999L9.63904 6.49599L9.45904 6.44799L9.41104 6.33999L9.43504 6.32799L9.71104 6.45999ZM6.23426 6.61601C6.71426 6.59201 7.15426 6.49601 7.55426 6.32801C7.96226 6.16001 8.30226 5.86401 8.57426 5.44001C8.63826 5.33601 8.67027 5.24001 8.67027 5.15201C8.67027 5.07201 8.63826 5.01601 8.57426 4.98401C8.51026 4.95201 8.44226 4.93601 8.37026 4.93601C8.17026 4.93601 7.96226 4.99201 7.74626 5.10401C7.53026 5.20801 7.32226 5.34801 7.12226 5.52401C6.93026 5.69201 6.75426 5.87601 6.59426 6.07601C6.44226 6.26801 6.32226 6.44801 6.23426 6.61601ZM6.52226 6.00401L6.55826 5.98001V5.95601L6.54626 5.98001L6.52226 6.00401ZM0.785533 7.58798C0.953533 7.70798 1.10953 7.76798 1.25353 7.76798C1.40553 7.76798 1.60553 7.74398 1.85353 7.69598C2.10153 7.64798 2.36553 7.57998 2.64553 7.49198C2.93354 7.41198 3.21354 7.31998 3.48554 7.21598C3.76554 7.11198 4.00954 6.99998 4.21754 6.87998C4.42554 6.75998 4.57354 6.63998 4.66154 6.51998L4.69754 6.54398C4.71354 6.50398 4.73754 6.47198 4.76954 6.44798C4.80954 6.41598 4.84554 6.39198 4.87754 6.37598C4.92554 6.38398 4.99754 6.34398 5.09354 6.25598C5.19754 6.15998 5.28154 6.10398 5.34554 6.08798C5.39354 6.01598 5.42954 5.95198 5.45354 5.89598C5.47754 5.83998 5.53354 5.79598 5.62154 5.76398C5.66154 5.67598 5.70554 5.59198 5.75354 5.51198C5.80154 5.42398 5.82554 5.32798 5.82554 5.22398C5.82554 5.03198 5.74554 4.88398 5.58554 4.77998C5.42554 4.66798 5.21754 4.58398 4.96154 4.52798C4.70554 4.47198 4.43354 4.42398 4.14554 4.38398C3.85754 4.33598 3.58554 4.28398 3.32954 4.22798C3.07354 4.17198 2.86554 4.09198 2.70553 3.98798C2.54553 3.88398 2.46553 3.73598 2.46553 3.54398C2.46553 3.43998 2.49353 3.34798 2.54953 3.26798C2.54153 3.29998 2.53353 3.33598 2.52553 3.37598V3.49598C2.52553 3.53598 2.52953 3.57598 2.53753 3.61598C2.54553 3.65598 2.56553 3.68798 2.59753 3.71198C2.57353 3.54398 2.64153 3.36798 2.80153 3.18398C2.96153 2.99998 3.17354 2.81998 3.43754 2.64398C3.70154 2.46798 3.98154 2.31198 4.27754 2.17598C4.58154 2.03198 4.86154 1.91998 5.11754 1.83998C5.37354 1.75198 5.57354 1.70798 5.71754 1.70798C5.83754 1.70798 5.93754 1.74798 6.01754 1.82798C6.10554 1.90798 6.18154 1.99598 6.24554 2.09198C6.19754 2.20398 6.15354 2.33598 6.11354 2.48798C6.07354 2.63998 6.04154 2.78398 6.01754 2.91998L6.05354 2.97998L6.01754 3.21998V3.24398C6.15354 3.22798 6.27354 3.15998 6.37754 3.03998C6.48154 2.91198 6.57754 2.80798 6.66554 2.72798C6.75354 2.71998 6.80554 2.65998 6.82154 2.54798C6.83754 2.42798 6.86154 2.33598 6.89354 2.27198L6.97754 2.30798L7.01354 2.29598L6.97754 2.23598L7.00154 2.19998L6.91754 2.03198V2.01998L7.02554 2.06798C7.08154 2.05198 7.10554 1.99198 7.09754 1.88798C7.08954 1.78398 7.12554 1.71598 7.20554 1.68398L7.28954 1.71998L7.50554 1.63598L7.55354 1.45598C7.53754 1.42398 7.47754 1.38798 7.37354 1.34798C7.27754 1.30798 7.16554 1.26798 7.03754 1.22798C6.90954 1.18798 6.78954 1.15598 6.67754 1.13198C6.57354 1.09998 6.50154 1.08398 6.46154 1.08398L6.41354 1.10798C6.43754 1.14798 6.45354 1.19598 6.46154 1.25198C6.46954 1.29998 6.47354 1.35198 6.47354 1.40798C6.47354 1.51198 6.42954 1.57998 6.34154 1.61198C6.30954 1.45198 6.23354 1.35198 6.11354 1.31198C6.00154 1.26398 5.87754 1.23198 5.74154 1.21598C5.58954 1.26398 5.36954 1.34798 5.08154 1.46798C4.80154 1.57998 4.49354 1.71998 4.15754 1.88798C3.82954 2.04798 3.51354 2.22398 3.20954 2.41598C2.90554 2.59998 2.65354 2.78798 2.45353 2.97998C2.26153 3.17198 2.16553 3.35198 2.16553 3.51998L2.18953 3.55598L2.24953 3.51998C2.24953 3.74398 2.31353 3.92398 2.44153 4.05998C2.57753 4.19598 2.74953 4.30798 2.95754 4.39598C3.17354 4.47598 3.39754 4.53998 3.62954 4.58798C3.86954 4.63598 4.09354 4.68398 4.30154 4.73198C4.50954 4.77998 4.67754 4.83998 4.80554 4.91198C4.93354 4.97598 4.98954 5.06798 4.97354 5.18798V5.30798L4.87754 5.35598L4.79354 5.48798C4.76154 5.50398 4.67754 5.55998 4.54154 5.65598C4.40554 5.75198 4.25354 5.86398 4.08554 5.99198C3.91754 6.11198 3.76554 6.22798 3.62954 6.33998C3.49354 6.44398 3.40954 6.51198 3.37754 6.54398C3.32154 6.55198 3.26954 6.56798 3.22154 6.59198L3.07754 6.66398L2.98154 6.65198L2.99354 6.68798C2.97754 6.73598 2.94554 6.76798 2.89754 6.78398C2.85754 6.79198 2.81754 6.79598 2.77753 6.79598V6.80798C2.63353 6.85598 2.45753 6.91198 2.24953 6.97598C2.04153 7.03998 1.83353 7.09598 1.62553 7.14398C1.41753 7.19998 1.24153 7.22798 1.09753 7.22798C0.993533 7.22798 0.917533 7.19198 0.869533 7.11998L1.01353 6.37598C1.09353 6.23198 1.17753 6.10398 1.26553 5.99198L1.20553 5.95598C1.15753 5.96398 1.11753 5.99998 1.08553 6.06398C1.06153 6.11998 1.03753 6.16798 1.01353 6.20798C0.917533 6.27198 0.837533 6.35198 0.773533 6.44798V6.48398C0.717532 6.58798 0.665532 6.69998 0.617532 6.81998C0.569532 6.93198 0.545532 7.04798 0.545532 7.16798C0.545532 7.32798 0.625532 7.46798 0.785533 7.58798ZM5.94554 3.27998L5.88554 3.45998L6.00554 3.32798L5.94554 3.27998ZM5.18954 4.89998L5.16554 4.95998L5.08154 4.88798L5.15354 4.85198L5.18954 4.89998ZM5.69354 5.37998V5.40398L5.60954 5.37998V5.33198L5.62154 5.27198L5.69354 5.37998ZM5.54954 5.55998L5.46554 5.60798L5.41754 5.59598C5.42554 5.50798 5.46954 5.42398 5.54954 5.34398L5.56154 5.45198L5.54954 5.55998ZM5.59754 5.64398L5.47754 5.77598L5.42954 5.76398L5.40554 5.69198L5.59754 5.63198V5.64398ZM5.27354 5.97998L5.14154 5.99198V5.97998L5.17754 5.87198L5.22554 5.91998L5.36954 5.78798L5.27354 5.97998Z" fill="black"/>
</svg>
