<svg width="39" height="16" viewBox="0 0 39 16" fill="none" xmlns="http://www.w3.org/2000/svg">
<path fill-rule="evenodd" clip-rule="evenodd" d="M10.5094 5.30218C12.81 9.64894 12.9552 12.001 12.1889 13.6464C11.9128 14.2393 11.2244 14.649 10.9282 14.8084C10.1849 15.2084 8.64589 15.0092 7.2701 14.6053L7.06388 14.5174C7.75519 14.7401 9.25759 15.0312 10.0676 14.8084C12.7277 14.0768 12.4112 10.9083 9.73753 5.93229C7.06388 0.956258 4.13859 -0.408723 1.8327 0.529489C1.61129 0.619559 1.41825 0.742648 1.2522 0.895127L1.26997 0.876145L1.30562 0.838665L1.32346 0.820202L1.35928 0.783759C1.61647 0.525271 1.88312 0.323522 2.15791 0.230651C4.24316 -0.474071 7.82293 0.226502 10.5094 5.30218ZM10.5005 8.29946L10.5005 8.29949L10.5005 8.29952C10.624 8.56672 10.7566 8.85345 10.7987 8.9592L10.737 9.06265C10.3266 9.75126 10.186 9.98724 9.26839 11.1535C5.35304 15.2523 2.33221 15.9147 0.481067 13.9998C0.300219 13.8045 0.13984 13.5505 0 13.2378C0.0393882 13.3095 0.0914233 13.3886 0.156105 13.4749L0.179504 13.5057L0.191565 13.5213L0.216514 13.553L0.242498 13.5852L0.269549 13.6181L0.297634 13.6516L0.326788 13.6857L0.356975 13.7204L0.388196 13.7557L0.42052 13.7916L0.437061 13.8098L0.470935 13.8466L0.488269 13.8653L0.523694 13.903L0.54182 13.9221C2.82847 16.0151 5.1094 14.2194 8.20635 10.7501C8.67384 10.2005 9.3626 9.21685 10.2727 7.79918C10.3092 7.88574 10.402 8.08638 10.5005 8.29946ZM11.4685 1.17734C12.9177 2.43665 12.9177 4.39079 11.8306 7.18177C11.771 7.03479 11.5658 6.57224 11.4203 6.24435L11.4203 6.24433C11.3627 6.11443 11.3145 6.00568 11.2884 5.94605C12.1441 3.57563 12.164 2.44874 10.9332 1.32496C10.2251 0.678492 9.72233 0.651874 8.76503 0.809318L8.70234 0.819875L8.67085 0.825345L8.60744 0.836773L8.54355 0.848688L8.5114 0.854855L7.75654 1.00599V1.0046L7.77319 0.998468C9.28807 0.440496 10.589 0.3959 11.4685 1.17734ZM15.7855 10.588C15.9535 10.708 16.1095 10.768 16.2535 10.768C16.4055 10.768 16.6055 10.744 16.8535 10.696C17.1015 10.648 17.3655 10.58 17.6455 10.492C17.9335 10.412 18.2135 10.32 18.4855 10.216C18.7655 10.112 19.0095 10 19.2175 9.88C19.4255 9.76 19.5735 9.64 19.6615 9.52L19.6975 9.544C19.7135 9.504 19.7375 9.472 19.7695 9.448C19.8095 9.416 19.8455 9.392 19.8775 9.376C19.9255 9.384 19.9975 9.344 20.0935 9.256C20.1975 9.16 20.2815 9.104 20.3455 9.088C20.3935 9.016 20.4295 8.952 20.4535 8.896C20.4775 8.84 20.5335 8.796 20.6215 8.764C20.6615 8.676 20.7055 8.592 20.7535 8.512C20.8015 8.424 20.8255 8.328 20.8255 8.224C20.8255 8.032 20.7455 7.884 20.5855 7.78C20.4255 7.668 20.2175 7.584 19.9615 7.528C19.7055 7.472 19.4335 7.424 19.1455 7.384C18.8575 7.336 18.5855 7.284 18.3295 7.228C18.0735 7.172 17.8655 7.092 17.7055 6.988C17.5455 6.884 17.4655 6.736 17.4655 6.544C17.4655 6.44 17.4935 6.348 17.5495 6.268C17.5415 6.3 17.5335 6.336 17.5255 6.376V6.496C17.5255 6.536 17.5295 6.576 17.5375 6.616C17.5455 6.656 17.5655 6.688 17.5975 6.712C17.5735 6.544 17.6415 6.368 17.8015 6.184C17.9615 6 18.1735 5.82 18.4375 5.644C18.7015 5.468 18.9815 5.312 19.2775 5.176C19.5815 5.032 19.8615 4.92 20.1175 4.84C20.3735 4.752 20.5735 4.708 20.7175 4.708C20.8375 4.708 20.9375 4.748 21.0175 4.828C21.1055 4.908 21.1815 4.996 21.2455 5.092C21.1975 5.204 21.1535 5.336 21.1135 5.488C21.0735 5.64 21.0415 5.784 21.0175 5.92L21.0535 5.98L21.0175 6.22V6.244C21.1535 6.228 21.2735 6.16 21.3775 6.04C21.4815 5.912 21.5775 5.808 21.6655 5.728C21.7535 5.72 21.8055 5.66 21.8215 5.548C21.8375 5.428 21.8615 5.336 21.8935 5.272L21.9775 5.308L22.0135 5.296L21.9775 5.236L22.0015 5.2L21.9175 5.032V5.02L22.0255 5.068C22.0815 5.052 22.1055 4.992 22.0975 4.888C22.0895 4.784 22.1255 4.716 22.2055 4.684L22.2895 4.72L22.5055 4.636L22.5535 4.456C22.5375 4.424 22.4775 4.388 22.3735 4.348C22.2775 4.308 22.1655 4.268 22.0375 4.228C21.9095 4.188 21.7895 4.156 21.6775 4.132C21.5735 4.1 21.5015 4.084 21.4615 4.084L21.4135 4.108C21.4375 4.148 21.4535 4.196 21.4615 4.252C21.4695 4.3 21.4735 4.352 21.4735 4.408C21.4735 4.512 21.4295 4.58 21.3415 4.612C21.3095 4.452 21.2335 4.352 21.1135 4.312C21.0015 4.264 20.8775 4.232 20.7415 4.216C20.5895 4.264 20.3695 4.348 20.0815 4.468C19.8015 4.58 19.4935 4.72 19.1575 4.888C18.8295 5.048 18.5135 5.224 18.2095 5.416C17.9055 5.6 17.6535 5.788 17.4535 5.98C17.2615 6.172 17.1655 6.352 17.1655 6.52L17.1895 6.556L17.2495 6.52C17.2495 6.744 17.3135 6.924 17.4415 7.06C17.5775 7.196 17.7495 7.308 17.9575 7.396C18.1735 7.476 18.3975 7.54 18.6295 7.588C18.8695 7.636 19.0935 7.684 19.3015 7.732C19.5095 7.78 19.6775 7.84 19.8055 7.912C19.9335 7.976 19.9895 8.068 19.9735 8.188V8.308L19.8775 8.356L19.7935 8.488C19.7615 8.504 19.6775 8.56 19.5415 8.656C19.4055 8.752 19.2535 8.864 19.0855 8.992C18.9175 9.112 18.7655 9.228 18.6295 9.34C18.4935 9.444 18.4095 9.512 18.3775 9.544C18.3215 9.552 18.2695 9.568 18.2215 9.592L18.0775 9.664L17.9815 9.652L17.9935 9.688C17.9775 9.736 17.9455 9.768 17.8975 9.784C17.8575 9.792 17.8175 9.796 17.7775 9.796V9.808C17.6335 9.856 17.4575 9.912 17.2495 9.976C17.0415 10.04 16.8335 10.096 16.6255 10.144C16.4175 10.2 16.2415 10.228 16.0975 10.228C15.9935 10.228 15.9175 10.192 15.8695 10.12L16.0135 9.376C16.0935 9.232 16.1775 9.104 16.2655 8.992L16.2055 8.956C16.1575 8.964 16.1175 9 16.0855 9.064C16.0615 9.12 16.0375 9.168 16.0135 9.208C15.9175 9.272 15.8375 9.352 15.7735 9.448V9.484C15.7175 9.588 15.6655 9.7 15.6175 9.82C15.5695 9.932 15.5455 10.048 15.5455 10.168C15.5455 10.328 15.6255 10.468 15.7855 10.588ZM20.9455 6.28L20.8855 6.46L21.0055 6.328L20.9455 6.28ZM20.1895 7.9L20.1655 7.96L20.0815 7.888L20.1535 7.852L20.1895 7.9ZM20.6935 8.38V8.404L20.6095 8.38V8.332L20.6215 8.272L20.6935 8.38ZM20.5495 8.56L20.4655 8.608L20.4175 8.596C20.4255 8.508 20.4695 8.424 20.5495 8.344L20.5615 8.452L20.5495 8.56ZM20.5975 8.644L20.4775 8.776L20.4295 8.764L20.4055 8.692L20.5975 8.632V8.644ZM20.2735 8.98L20.1415 8.992V8.98L20.1775 8.872L20.2255 8.92L20.3695 8.788L20.2735 8.98ZM18.4863 12.004C18.6463 12.084 18.8063 12.124 18.9663 12.124C19.1503 12.124 19.3023 12.084 19.4223 12.004C19.5343 11.924 19.6463 11.82 19.7583 11.692H19.8063C19.8383 11.676 19.8703 11.648 19.9023 11.608L19.9743 11.512L20.1903 11.416C20.2703 11.296 20.3743 11.144 20.5023 10.96C20.6303 10.784 20.7503 10.6 20.8623 10.408C20.9743 10.224 21.0463 10.072 21.0783 9.952C21.2783 9.968 21.4743 9.952 21.6663 9.904C21.8663 9.848 22.0583 9.792 22.2423 9.736C22.3543 9.696 22.4503 9.632 22.5303 9.544C22.6103 9.456 22.7063 9.396 22.8183 9.364C22.9543 9.252 23.0943 9.16 23.2383 9.088C23.3023 8.944 23.3863 8.836 23.4903 8.764C23.5769 8.70215 23.6563 8.63551 23.7286 8.5641C23.7365 8.59961 23.748 8.63425 23.763 8.668C23.803 8.732 23.851 8.792 23.907 8.848V8.884L24.075 8.968H24.099V8.992L24.123 9.052V9.076L24.099 9.124H24.075L24.147 9.184H24.171L24.111 9.232V9.304L24.135 9.292L24.123 9.388H24.147C24.211 9.492 24.283 9.576 24.363 9.64C24.443 9.696 24.543 9.724 24.663 9.724C24.751 9.724 24.835 9.708 24.915 9.676C24.995 9.644 25.103 9.612 25.239 9.58C25.375 9.54 25.571 9.52 25.827 9.52L25.875 9.496C25.835 9.496 25.787 9.488 25.731 9.472C25.675 9.448 25.639 9.42 25.623 9.388C25.623 9.332 25.647 9.288 25.695 9.256C25.743 9.216 25.795 9.196 25.851 9.196L25.887 9.088C25.911 9.064 25.959 9.028 26.031 8.98C26.111 8.924 26.183 8.872 26.247 8.824C26.319 8.768 26.359 8.728 26.367 8.704H26.379C26.507 8.616 26.619 8.496 26.715 8.344C26.811 8.192 26.859 8.032 26.859 7.864C26.859 7.83654 26.8566 7.81103 26.8517 7.78748C26.9063 7.77576 26.9559 7.74127 27.0005 7.684C27.1125 7.636 27.2325 7.6 27.3605 7.576C27.4885 7.544 27.6165 7.516 27.7445 7.492C27.6565 7.644 27.5565 7.808 27.4445 7.984C27.3645 8.04 27.2765 8.156 27.1805 8.332C27.0845 8.508 26.9925 8.708 26.9045 8.932C26.8165 9.148 26.7405 9.356 26.6765 9.556C26.6205 9.748 26.5925 9.892 26.5925 9.988C26.5925 10.116 26.6325 10.232 26.7125 10.336C26.7925 10.448 26.8965 10.504 27.0245 10.504C27.0645 10.504 27.1485 10.452 27.2765 10.348C27.4045 10.244 27.5485 10.112 27.7085 9.952C27.8765 9.792 28.0365 9.628 28.1885 9.46C28.3485 9.284 28.4805 9.132 28.5845 9.004C28.6885 8.868 28.7405 8.78 28.7405 8.74L28.7285 8.716C28.5845 8.796 28.4805 8.896 28.4165 9.016L28.3445 9.076L28.3565 9.088L28.3085 9.112L28.2365 9.208H28.2125L28.1525 9.232C28.0005 9.4 27.8365 9.56 27.6605 9.712C27.4925 9.856 27.3285 10.008 27.1685 10.168H27.0725L27.0485 10.12C27.0485 10.024 27.0525 9.928 27.0605 9.832C27.0685 9.728 27.0725 9.624 27.0725 9.52C27.1285 9.504 27.1605 9.448 27.1685 9.352C27.1845 9.248 27.1965 9.172 27.2045 9.124L27.3725 8.74C27.4605 8.74 27.5045 8.7 27.5045 8.62C27.5045 8.54 27.5445 8.48 27.6245 8.44L27.9005 8.068C27.9005 8.004 27.9365 7.928 28.0085 7.84C28.0805 7.744 28.1605 7.656 28.2485 7.576C28.3445 7.496 28.4205 7.448 28.4765 7.432C28.5885 7.384 28.7045 7.364 28.8245 7.372C28.9525 7.372 29.0765 7.368 29.1965 7.36C29.3165 7.344 29.4245 7.296 29.5205 7.216L29.1485 7.168C29.0925 7.16 29.0325 7.156 28.9685 7.156H28.7885H28.6685C28.6285 7.156 28.5885 7.152 28.5485 7.144C28.5725 7.104 28.6005 7.072 28.6325 7.048C28.6725 7.016 28.7085 6.988 28.7405 6.964V6.916L28.8125 6.808C28.8525 6.752 28.8845 6.72 28.9085 6.712C28.9565 6.696 29.0245 6.664 29.1125 6.616C29.2005 6.568 29.2765 6.512 29.3405 6.448C29.4125 6.384 29.4485 6.328 29.4485 6.28V6.268C29.5125 6.252 29.5725 6.224 29.6285 6.184C29.6845 6.136 29.7125 6.076 29.7125 6.004C29.7125 5.884 29.6365 5.8 29.4845 5.752C29.3325 5.696 29.2125 5.668 29.1245 5.668C29.1005 5.668 29.0485 5.672 28.9685 5.68C28.8885 5.688 28.8485 5.716 28.8485 5.764L28.7405 5.932C28.6765 6.036 28.6005 6.16 28.5125 6.304C28.4245 6.448 28.3405 6.584 28.2605 6.712C28.1805 6.84 28.1285 6.932 28.1045 6.988L28.1165 7.036L28.0685 7.108C28.0205 7.116 27.9725 7.12 27.9245 7.12H27.7685H27.4685L27.3485 7.144C27.2925 7.12 27.1885 7.108 27.0365 7.108C26.9325 7.108 26.8285 7.124 26.7245 7.156C26.6285 7.188 26.5805 7.256 26.5805 7.36C26.5805 7.392 26.5845 7.412 26.5925 7.42C26.6005 7.452 26.6085 7.488 26.6165 7.528C26.6248 7.54464 26.631 7.56236 26.6349 7.58116C26.5353 7.53568 26.454 7.47796 26.391 7.408C26.335 7.392 26.255 7.368 26.151 7.336C26.055 7.304 25.975 7.288 25.911 7.288H25.239L25.227 7.312C25.123 7.296 25.027 7.308 24.939 7.348L24.879 7.336L24.843 7.372C24.739 7.372 24.659 7.4 24.603 7.456C24.491 7.456 24.363 7.516 24.219 7.636C24.1082 7.73374 24.0081 7.84209 23.9185 7.96106C23.9092 7.88364 23.8825 7.79129 23.8383 7.684C23.7903 7.548 23.7103 7.48 23.5983 7.48C23.5663 7.48 23.5303 7.492 23.4903 7.516L23.3943 7.468C23.2743 7.484 23.1823 7.5 23.1183 7.516C23.0623 7.524 23.0063 7.544 22.9503 7.576C22.9023 7.608 22.8303 7.668 22.7343 7.756C22.6463 7.772 22.5943 7.82 22.5783 7.9H22.5183L22.3503 8.008C22.3743 8.024 22.3663 8.044 22.3263 8.068C22.2943 8.084 22.2703 8.092 22.2543 8.092C22.1983 8.132 22.1583 8.184 22.1343 8.248C22.1183 8.312 22.0863 8.364 22.0383 8.404C21.9823 8.412 21.9303 8.448 21.8823 8.512C21.8423 8.568 21.8023 8.616 21.7623 8.656C21.7863 8.6 21.8063 8.544 21.8223 8.488C21.8463 8.424 21.8623 8.36 21.8703 8.296C21.9263 8.296 21.9783 8.244 22.0263 8.14C22.0823 8.036 22.1303 7.912 22.1703 7.768C22.2183 7.624 22.2543 7.492 22.2783 7.372C22.3023 7.244 22.3143 7.156 22.3143 7.108C22.3143 6.972 22.2823 6.86 22.2183 6.772C22.1543 6.684 22.0463 6.64 21.8943 6.64H21.8703C21.8943 6.672 21.9223 6.704 21.9543 6.736C21.9863 6.768 22.0103 6.804 22.0263 6.844C21.9543 7.116 21.8943 7.356 21.8463 7.564C21.7983 7.772 21.6943 8 21.5343 8.248C21.5103 8.288 21.4863 8.332 21.4623 8.38C21.4383 8.42 21.4263 8.464 21.4263 8.512C21.4263 8.624 21.3983 8.728 21.3423 8.824C21.2943 8.92 21.2383 9.016 21.1743 9.112C21.0943 9.176 21.0463 9.244 21.0303 9.316C21.0143 9.388 20.9743 9.46 20.9103 9.532L20.8743 9.58L20.8503 9.568C20.7943 9.672 20.7303 9.78 20.6583 9.892C20.5943 10.004 20.5303 10.108 20.4663 10.204C20.4583 10.252 20.4063 10.336 20.3103 10.456C20.2063 10.584 20.0823 10.724 19.9383 10.876C19.7863 11.036 19.6343 11.184 19.4823 11.32C19.3303 11.456 19.1943 11.568 19.0743 11.656C18.9543 11.744 18.8743 11.78 18.8343 11.764C18.8023 11.772 18.7703 11.776 18.7383 11.776C18.7063 11.784 18.6743 11.788 18.6423 11.788C18.4743 11.788 18.3543 11.752 18.2823 11.68C18.2103 11.616 18.1543 11.532 18.1143 11.428C18.0743 11.324 18.0143 11.228 17.9343 11.14L17.8983 11.224C17.8983 11.4 17.9543 11.556 18.0663 11.692C18.1783 11.828 18.3183 11.932 18.4863 12.004ZM22.5543 9.328C22.1543 9.496 21.7143 9.592 21.2343 9.616C21.3223 9.448 21.4423 9.268 21.5943 9.076C21.7543 8.876 21.9303 8.692 22.1223 8.524C22.3223 8.348 22.5303 8.208 22.7463 8.104C22.9623 7.992 23.1703 7.936 23.3703 7.936C23.4423 7.936 23.5103 7.952 23.5743 7.984C23.6383 8.016 23.6703 8.072 23.6703 8.152C23.6703 8.24 23.6383 8.336 23.5743 8.44C23.3023 8.864 22.9623 9.16 22.5543 9.328ZM21.5583 8.98L21.5223 9.004L21.5463 8.98L21.5583 8.956V8.98ZM25.503 9.136C25.407 9.2 25.235 9.292 24.987 9.412C24.883 9.412 24.787 9.388 24.699 9.34C24.611 9.284 24.523 9.236 24.435 9.196L24.423 8.98C24.415 8.844 24.459 8.692 24.555 8.524C24.651 8.356 24.771 8.204 24.915 8.068C25.059 7.924 25.191 7.836 25.311 7.804V7.768H25.203L25.095 7.84L25.047 7.804L24.963 7.9H24.891C24.883 7.956 24.851 7.992 24.795 8.008C24.739 8.016 24.711 8.052 24.711 8.116C24.687 8.132 24.659 8.144 24.627 8.152L24.555 8.176V8.188L24.495 8.224L24.459 8.296L24.435 8.284L24.363 8.392V8.44L24.279 8.62L24.219 8.656V8.692L24.171 8.68C24.139 8.624 24.123 8.556 24.123 8.476C24.123 8.316 24.179 8.172 24.291 8.044C24.403 7.908 24.535 7.792 24.687 7.696C24.847 7.6 24.991 7.528 25.119 7.48L25.275 7.492C25.339 7.468 25.407 7.448 25.479 7.432C25.559 7.416 25.635 7.408 25.707 7.408C25.843 7.408 25.963 7.456 26.067 7.552C26.179 7.64 26.235 7.756 26.235 7.9C26.235 7.98 26.219 8.056 26.187 8.128C26.163 8.192 26.147 8.26 26.139 8.332C26.163 8.34 26.191 8.344 26.223 8.344V8.368C26.055 8.528 25.939 8.652 25.875 8.74C25.811 8.828 25.759 8.9 25.719 8.956C25.679 9.004 25.607 9.064 25.503 9.136ZM24.711 9.46L24.639 9.496L24.459 9.448L24.411 9.34L24.435 9.328L24.711 9.46ZM28.9759 11.692C29.0239 11.732 29.0759 11.752 29.1319 11.752C29.2279 11.752 29.3279 11.732 29.4319 11.692C29.4399 11.684 29.5319 11.624 29.7079 11.512C29.8759 11.4 30.0799 11.26 30.3199 11.092C30.5679 10.924 30.8119 10.756 31.0519 10.588C31.2999 10.428 31.5039 10.292 31.6639 10.18C31.8319 10.068 31.9199 10.008 31.9279 10L31.8799 9.976C31.6719 10.096 31.4359 10.212 31.1719 10.324C30.9079 10.436 30.6919 10.572 30.5239 10.732L30.4279 10.72L30.3319 10.756C30.2599 10.82 30.1759 10.864 30.0799 10.888L29.8159 10.984L29.8039 10.96C29.8039 10.864 29.8719 10.716 30.0079 10.516C30.1439 10.316 30.3159 10.096 30.5239 9.856C30.7399 9.608 30.9599 9.364 31.1839 9.124C31.4159 8.876 31.6279 8.656 31.8199 8.464C32.0119 8.264 32.1519 8.12 32.2399 8.032L32.3359 8.224L32.3719 8.212L32.4319 8.296L32.3599 8.464C32.4079 8.552 32.4839 8.688 32.5879 8.872C32.6919 9.056 32.7959 9.236 32.8999 9.412C33.0039 9.58 33.0799 9.688 33.1279 9.736C33.1439 9.864 33.2119 9.968 33.3319 10.048C33.4599 10.136 33.5759 10.2 33.6799 10.24L33.7519 10.144L33.8239 10.228V10.312L33.8839 10.444L34.1119 10.42C34.1759 10.5 34.2479 10.572 34.3279 10.636C34.4159 10.7 34.5159 10.732 34.6279 10.732H34.6759L34.7479 10.828C34.8279 10.86 34.9319 10.876 35.0599 10.876C35.1959 10.884 35.3199 10.9 35.4319 10.924C35.5439 10.948 35.6159 11.008 35.6479 11.104L35.6119 11.164C35.6279 11.188 35.6919 11.216 35.8039 11.248C35.9239 11.28 36.0599 11.312 36.2119 11.344C36.3719 11.376 36.5159 11.4 36.6439 11.416C36.7799 11.44 36.8679 11.452 36.9079 11.452C36.9959 11.452 37.1239 11.432 37.2919 11.392C37.4679 11.352 37.6359 11.3 37.7959 11.236C37.9639 11.18 38.0759 11.12 38.1319 11.056C37.9719 11.048 37.8079 11.06 37.6399 11.092C37.4799 11.124 37.3199 11.14 37.1599 11.14C36.8719 11.14 36.5999 11.1 36.3439 11.02C36.0959 10.94 35.8319 10.88 35.5519 10.84C35.1919 10.552 34.8879 10.284 34.6399 10.036C34.3919 9.788 34.1719 9.536 33.9799 9.28C33.7959 9.024 33.6239 8.74 33.4639 8.428C33.3039 8.116 33.1319 7.748 32.9479 7.324C33.0599 7.212 33.2239 7.044 33.4399 6.82C33.6559 6.596 33.8999 6.348 34.1719 6.076C34.4439 5.804 34.7119 5.544 34.9759 5.296C35.2479 5.04 35.4959 4.828 35.7199 4.66C35.9439 4.492 36.1199 4.404 36.2479 4.396L36.1879 4.504C36.0359 4.624 35.8959 4.772 35.7679 4.948H35.8039C35.9719 4.844 36.1399 4.756 36.3079 4.684C36.4839 4.604 36.6679 4.532 36.8599 4.468L36.9199 4.408L37.0039 4.396L37.1119 4.276H37.1239L37.2319 4.384C37.2559 4.304 37.2759 4.224 37.2919 4.144C37.3159 4.064 37.3479 3.992 37.3879 3.928C37.3639 3.864 37.3519 3.792 37.3519 3.712C37.3519 3.624 37.3239 3.556 37.2679 3.508C36.8199 3.636 36.4039 3.84 36.0199 4.12C35.6359 4.4 35.2679 4.708 34.9159 5.044C34.5719 5.372 34.2279 5.684 33.8839 5.98V5.968L33.8359 6.028L33.8479 6.04L33.4759 6.388L33.4879 6.4C33.3679 6.504 33.2559 6.612 33.1519 6.724C33.0559 6.836 32.9519 6.94 32.8399 7.036L32.7439 6.808C32.7679 6.584 32.7399 6.36 32.6599 6.136C32.5879 5.912 32.5119 5.688 32.4319 5.464C32.3519 5.232 32.3119 5.004 32.3119 4.78C32.3119 4.708 32.2999 4.652 32.2759 4.612C32.2519 4.572 32.1999 4.552 32.1199 4.552H32.0599C32.0279 4.304 31.9799 4.06 31.9159 3.82C31.8519 3.58 31.7839 3.348 31.7119 3.124L31.6399 3.1C31.5599 3.108 31.4919 3.18 31.4359 3.316C31.3799 3.444 31.3519 3.54 31.3519 3.604C31.3999 3.732 31.4599 3.852 31.5319 3.964C31.6119 4.076 31.6439 4.2 31.6279 4.336L31.6159 4.324L31.6639 4.636L31.1959 4.768L31.1479 4.972L31.1839 5.092C31.2239 5.108 31.2479 5.164 31.2559 5.26C31.2639 5.356 31.2719 5.464 31.2799 5.584C31.2879 5.704 31.3079 5.808 31.3399 5.896C31.3719 5.984 31.4239 6.028 31.4959 6.028L31.5919 6.352L31.6519 6.232C31.6679 6.288 31.6839 6.388 31.6999 6.532C31.7159 6.676 31.7399 6.828 31.7719 6.988C31.8039 7.148 31.8439 7.284 31.8919 7.396C31.9479 7.508 32.0199 7.56 32.1079 7.552L32.2279 7.684C32.1719 7.78 32.0719 7.896 31.9279 8.032L31.4959 8.464C31.3439 8.608 31.2079 8.744 31.0879 8.872C30.9759 9 30.9119 9.108 30.8959 9.196L30.7399 9.316C30.7239 9.356 30.6639 9.432 30.5599 9.544C30.4639 9.656 30.3599 9.768 30.2479 9.88C30.1439 9.984 30.0679 10.052 30.0199 10.084L30.0079 10.048L30.0919 9.952H30.0439L29.9359 10.024C29.8879 10.12 29.8079 10.232 29.6959 10.36C29.5839 10.496 29.4679 10.636 29.3479 10.78C29.2199 10.924 29.1159 11.064 29.0359 11.2C28.9479 11.336 28.9039 11.452 28.9039 11.548C28.9039 11.612 28.9279 11.66 28.9759 11.692ZM30.5719 9.352L30.5599 9.412C30.6159 9.364 30.6679 9.316 30.7159 9.268C30.7719 9.22 30.8199 9.168 30.8599 9.112C30.7559 9.168 30.6599 9.248 30.5719 9.352ZM30.1519 9.82L30.2119 9.832L30.2599 9.796L30.2839 9.736L30.3799 9.664C30.4199 9.64 30.4519 9.612 30.4759 9.58L30.4519 9.532C30.3959 9.564 30.3399 9.612 30.2839 9.676C30.2359 9.732 30.1919 9.78 30.1519 9.82Z" fill="black"/>
</svg>
